<mxfile host="drawio-plugin" modified="2023-01-02T14:52:40.840Z" agent="5.0 (Macintosh; Intel Mac OS X 10_15_7) AppleWebKit/537.36 (KHTML, like Gecko) Chrome/98.0.4758.102 Safari/537.36" etag="tK8wDuw-71CghN7hZkKb" version="20.5.3" type="embed"><diagram id="EqzWRhzl04W5Nxo8JZmx" name="Page-1"><mxGraphModel dx="2407" dy="1582" grid="0" gridSize="10" guides="1" tooltips="1" connect="1" arrows="1" fold="1" page="1" pageScale="1" pageWidth="827" pageHeight="1169" math="0" shadow="0"><root><mxCell id="0"/><mxCell id="1" parent="0"/><mxCell id="CEBWaWUKwCKMxq4C34Ef-1" value="Role" style="shape=table;startSize=30;container=1;collapsible=1;childLayout=tableLayout;fixedRows=1;rowLines=0;fontStyle=1;align=center;resizeLast=1;fillColor=none;" parent="1" vertex="1"><mxGeometry x="-528" y="334" width="180" height="180" as="geometry"/></mxCell><mxCell id="CEBWaWUKwCKMxq4C34Ef-2" value="" style="shape=tableRow;horizontal=0;startSize=0;swimlaneHead=0;swimlaneBody=0;fillColor=none;collapsible=0;dropTarget=0;points=[[0,0.5],[1,0.5]];portConstraint=eastwest;top=0;left=0;right=0;bottom=1;" parent="CEBWaWUKwCKMxq4C34Ef-1" vertex="1"><mxGeometry y="30" width="180" height="30" as="geometry"/></mxCell><mxCell id="CEBWaWUKwCKMxq4C34Ef-3" value="PK" style="shape=partialRectangle;connectable=0;fillColor=none;top=0;left=0;bottom=0;right=0;fontStyle=1;overflow=hidden;" parent="CEBWaWUKwCKMxq4C34Ef-2" vertex="1"><mxGeometry width="30" height="30" as="geometry"><mxRectangle width="30" height="30" as="alternateBounds"/></mxGeometry></mxCell><mxCell id="CEBWaWUKwCKMxq4C34Ef-4" value="UniqueID" style="shape=partialRectangle;connectable=0;fillColor=none;top=0;left=0;bottom=0;right=0;align=left;spacingLeft=6;fontStyle=5;overflow=hidden;" parent="CEBWaWUKwCKMxq4C34Ef-2" vertex="1"><mxGeometry x="30" width="150" height="30" as="geometry"><mxRectangle width="150" height="30" as="alternateBounds"/></mxGeometry></mxCell><mxCell id="CEBWaWUKwCKMxq4C34Ef-5" value="" style="shape=tableRow;horizontal=0;startSize=0;swimlaneHead=0;swimlaneBody=0;fillColor=none;collapsible=0;dropTarget=0;points=[[0,0.5],[1,0.5]];portConstraint=eastwest;top=0;left=0;right=0;bottom=0;" parent="CEBWaWUKwCKMxq4C34Ef-1" vertex="1"><mxGeometry y="60" width="180" height="30" as="geometry"/></mxCell><mxCell id="CEBWaWUKwCKMxq4C34Ef-6" value="str" style="shape=partialRectangle;connectable=0;fillColor=none;top=0;left=0;bottom=0;right=0;editable=1;overflow=hidden;" parent="CEBWaWUKwCKMxq4C34Ef-5" vertex="1"><mxGeometry width="30" height="30" as="geometry"><mxRectangle width="30" height="30" as="alternateBounds"/></mxGeometry></mxCell><mxCell id="CEBWaWUKwCKMxq4C34Ef-7" value="title" style="shape=partialRectangle;connectable=0;fillColor=none;top=0;left=0;bottom=0;right=0;align=left;spacingLeft=6;overflow=hidden;" parent="CEBWaWUKwCKMxq4C34Ef-5" vertex="1"><mxGeometry x="30" width="150" height="30" as="geometry"><mxRectangle width="150" height="30" as="alternateBounds"/></mxGeometry></mxCell><mxCell id="14" style="shape=tableRow;horizontal=0;startSize=0;swimlaneHead=0;swimlaneBody=0;fillColor=none;collapsible=0;dropTarget=0;points=[[0,0.5],[1,0.5]];portConstraint=eastwest;top=0;left=0;right=0;bottom=0;" vertex="1" parent="CEBWaWUKwCKMxq4C34Ef-1"><mxGeometry y="90" width="180" height="30" as="geometry"/></mxCell><mxCell id="15" value="FK?&#10;USA" style="shape=partialRectangle;connectable=0;fillColor=none;top=0;left=0;bottom=0;right=0;editable=1;overflow=hidden;" vertex="1" parent="14"><mxGeometry width="30" height="30" as="geometry"><mxRectangle width="30" height="30" as="alternateBounds"/></mxGeometry></mxCell><mxCell id="16" value="companyId" style="shape=partialRectangle;connectable=0;fillColor=none;top=0;left=0;bottom=0;right=0;align=left;spacingLeft=6;overflow=hidden;" vertex="1" parent="14"><mxGeometry x="30" width="150" height="30" as="geometry"><mxRectangle width="150" height="30" as="alternateBounds"/></mxGeometry></mxCell><mxCell id="OAINGEWpF4Lm4pN9tbVx-42" style="shape=tableRow;horizontal=0;startSize=0;swimlaneHead=0;swimlaneBody=0;fillColor=none;collapsible=0;dropTarget=0;points=[[0,0.5],[1,0.5]];portConstraint=eastwest;top=0;left=0;right=0;bottom=0;" parent="CEBWaWUKwCKMxq4C34Ef-1" vertex="1"><mxGeometry y="120" width="180" height="30" as="geometry"/></mxCell><mxCell id="OAINGEWpF4Lm4pN9tbVx-43" value="str" style="shape=partialRectangle;connectable=0;fillColor=none;top=0;left=0;bottom=0;right=0;editable=1;overflow=hidden;" parent="OAINGEWpF4Lm4pN9tbVx-42" vertex="1"><mxGeometry width="30" height="30" as="geometry"><mxRectangle width="30" height="30" as="alternateBounds"/></mxGeometry></mxCell><mxCell id="OAINGEWpF4Lm4pN9tbVx-44" value="description" style="shape=partialRectangle;connectable=0;fillColor=none;top=0;left=0;bottom=0;right=0;align=left;spacingLeft=6;overflow=hidden;" parent="OAINGEWpF4Lm4pN9tbVx-42" vertex="1"><mxGeometry x="30" width="150" height="30" as="geometry"><mxRectangle width="150" height="30" as="alternateBounds"/></mxGeometry></mxCell><mxCell id="OAINGEWpF4Lm4pN9tbVx-45" style="shape=tableRow;horizontal=0;startSize=0;swimlaneHead=0;swimlaneBody=0;fillColor=none;collapsible=0;dropTarget=0;points=[[0,0.5],[1,0.5]];portConstraint=eastwest;top=0;left=0;right=0;bottom=0;" parent="CEBWaWUKwCKMxq4C34Ef-1" vertex="1"><mxGeometry y="150" width="180" height="30" as="geometry"/></mxCell><mxCell id="OAINGEWpF4Lm4pN9tbVx-46" value="FK[]" style="shape=partialRectangle;connectable=0;fillColor=none;top=0;left=0;bottom=0;right=0;editable=1;overflow=hidden;" parent="OAINGEWpF4Lm4pN9tbVx-45" vertex="1"><mxGeometry width="30" height="30" as="geometry"><mxRectangle width="30" height="30" as="alternateBounds"/></mxGeometry></mxCell><mxCell id="OAINGEWpF4Lm4pN9tbVx-47" value="credentials" style="shape=partialRectangle;connectable=0;fillColor=none;top=0;left=0;bottom=0;right=0;align=left;spacingLeft=6;overflow=hidden;" parent="OAINGEWpF4Lm4pN9tbVx-45" vertex="1"><mxGeometry x="30" width="150" height="30" as="geometry"><mxRectangle width="150" height="30" as="alternateBounds"/></mxGeometry></mxCell><mxCell id="CEBWaWUKwCKMxq4C34Ef-14" value="Task" style="shape=table;startSize=30;container=1;collapsible=1;childLayout=tableLayout;fixedRows=1;rowLines=0;fontStyle=1;align=center;resizeLast=1;fillColor=default;" parent="1" vertex="1"><mxGeometry x="562" y="366" width="180" height="210" as="geometry"><mxRectangle x="320" y="28" width="68" height="30" as="alternateBounds"/></mxGeometry></mxCell><mxCell id="CEBWaWUKwCKMxq4C34Ef-15" value="" style="shape=tableRow;horizontal=0;startSize=0;swimlaneHead=0;swimlaneBody=0;fillColor=none;collapsible=0;dropTarget=0;points=[[0,0.5],[1,0.5]];portConstraint=eastwest;top=0;left=0;right=0;bottom=1;" parent="CEBWaWUKwCKMxq4C34Ef-14" vertex="1"><mxGeometry y="30" width="180" height="30" as="geometry"/></mxCell><mxCell id="CEBWaWUKwCKMxq4C34Ef-16" value="PK" style="shape=partialRectangle;connectable=0;fillColor=none;top=0;left=0;bottom=0;right=0;fontStyle=1;overflow=hidden;" parent="CEBWaWUKwCKMxq4C34Ef-15" vertex="1"><mxGeometry width="30" height="30" as="geometry"><mxRectangle width="30" height="30" as="alternateBounds"/></mxGeometry></mxCell><mxCell id="CEBWaWUKwCKMxq4C34Ef-17" value="UniqueID" style="shape=partialRectangle;connectable=0;fillColor=none;top=0;left=0;bottom=0;right=0;align=left;spacingLeft=6;fontStyle=5;overflow=hidden;" parent="CEBWaWUKwCKMxq4C34Ef-15" vertex="1"><mxGeometry x="30" width="150" height="30" as="geometry"><mxRectangle width="150" height="30" as="alternateBounds"/></mxGeometry></mxCell><mxCell id="CEBWaWUKwCKMxq4C34Ef-18" value="" style="shape=tableRow;horizontal=0;startSize=0;swimlaneHead=0;swimlaneBody=0;fillColor=none;collapsible=0;dropTarget=0;points=[[0,0.5],[1,0.5]];portConstraint=eastwest;top=0;left=0;right=0;bottom=0;" parent="CEBWaWUKwCKMxq4C34Ef-14" vertex="1"><mxGeometry y="60" width="180" height="30" as="geometry"/></mxCell><mxCell id="CEBWaWUKwCKMxq4C34Ef-19" value="str" style="shape=partialRectangle;connectable=0;fillColor=none;top=0;left=0;bottom=0;right=0;editable=1;overflow=hidden;" parent="CEBWaWUKwCKMxq4C34Ef-18" vertex="1"><mxGeometry width="30" height="30" as="geometry"><mxRectangle width="30" height="30" as="alternateBounds"/></mxGeometry></mxCell><mxCell id="CEBWaWUKwCKMxq4C34Ef-20" value="title" style="shape=partialRectangle;connectable=0;fillColor=none;top=0;left=0;bottom=0;right=0;align=left;spacingLeft=6;overflow=hidden;" parent="CEBWaWUKwCKMxq4C34Ef-18" vertex="1"><mxGeometry x="30" width="150" height="30" as="geometry"><mxRectangle width="150" height="30" as="alternateBounds"/></mxGeometry></mxCell><mxCell id="CEBWaWUKwCKMxq4C34Ef-21" value="" style="shape=tableRow;horizontal=0;startSize=0;swimlaneHead=0;swimlaneBody=0;fillColor=none;collapsible=0;dropTarget=0;points=[[0,0.5],[1,0.5]];portConstraint=eastwest;top=0;left=0;right=0;bottom=0;" parent="CEBWaWUKwCKMxq4C34Ef-14" vertex="1"><mxGeometry y="90" width="180" height="30" as="geometry"/></mxCell><mxCell id="CEBWaWUKwCKMxq4C34Ef-22" value="str" style="shape=partialRectangle;connectable=0;fillColor=none;top=0;left=0;bottom=0;right=0;editable=1;overflow=hidden;" parent="CEBWaWUKwCKMxq4C34Ef-21" vertex="1"><mxGeometry width="30" height="30" as="geometry"><mxRectangle width="30" height="30" as="alternateBounds"/></mxGeometry></mxCell><mxCell id="CEBWaWUKwCKMxq4C34Ef-23" value="description" style="shape=partialRectangle;connectable=0;fillColor=none;top=0;left=0;bottom=0;right=0;align=left;spacingLeft=6;overflow=hidden;" parent="CEBWaWUKwCKMxq4C34Ef-21" vertex="1"><mxGeometry x="30" width="150" height="30" as="geometry"><mxRectangle width="150" height="30" as="alternateBounds"/></mxGeometry></mxCell><mxCell id="CEBWaWUKwCKMxq4C34Ef-41" style="shape=tableRow;horizontal=0;startSize=0;swimlaneHead=0;swimlaneBody=0;fillColor=none;collapsible=0;dropTarget=0;points=[[0,0.5],[1,0.5]];portConstraint=eastwest;top=0;left=0;right=0;bottom=0;" parent="CEBWaWUKwCKMxq4C34Ef-14" vertex="1"><mxGeometry y="120" width="180" height="30" as="geometry"/></mxCell><mxCell id="CEBWaWUKwCKMxq4C34Ef-42" value="DT" style="shape=partialRectangle;connectable=0;fillColor=none;top=0;left=0;bottom=0;right=0;editable=1;overflow=hidden;" parent="CEBWaWUKwCKMxq4C34Ef-41" vertex="1"><mxGeometry width="30" height="30" as="geometry"><mxRectangle width="30" height="30" as="alternateBounds"/></mxGeometry></mxCell><mxCell id="CEBWaWUKwCKMxq4C34Ef-43" value="deadline" style="shape=partialRectangle;connectable=0;fillColor=none;top=0;left=0;bottom=0;right=0;align=left;spacingLeft=6;overflow=hidden;" parent="CEBWaWUKwCKMxq4C34Ef-41" vertex="1"><mxGeometry x="30" width="150" height="30" as="geometry"><mxRectangle width="150" height="30" as="alternateBounds"/></mxGeometry></mxCell><mxCell id="CEBWaWUKwCKMxq4C34Ef-24" value="" style="shape=tableRow;horizontal=0;startSize=0;swimlaneHead=0;swimlaneBody=0;fillColor=none;collapsible=0;dropTarget=0;points=[[0,0.5],[1,0.5]];portConstraint=eastwest;top=0;left=0;right=0;bottom=0;" parent="CEBWaWUKwCKMxq4C34Ef-14" vertex="1"><mxGeometry y="150" width="180" height="30" as="geometry"/></mxCell><mxCell id="CEBWaWUKwCKMxq4C34Ef-25" value="DT" style="shape=partialRectangle;connectable=0;fillColor=none;top=0;left=0;bottom=0;right=0;editable=1;overflow=hidden;" parent="CEBWaWUKwCKMxq4C34Ef-24" vertex="1"><mxGeometry width="30" height="30" as="geometry"><mxRectangle width="30" height="30" as="alternateBounds"/></mxGeometry></mxCell><mxCell id="CEBWaWUKwCKMxq4C34Ef-26" value="createdAt" style="shape=partialRectangle;connectable=0;fillColor=none;top=0;left=0;bottom=0;right=0;align=left;spacingLeft=6;overflow=hidden;" parent="CEBWaWUKwCKMxq4C34Ef-24" vertex="1"><mxGeometry x="30" width="150" height="30" as="geometry"><mxRectangle width="150" height="30" as="alternateBounds"/></mxGeometry></mxCell><mxCell id="CEBWaWUKwCKMxq4C34Ef-44" style="shape=tableRow;horizontal=0;startSize=0;swimlaneHead=0;swimlaneBody=0;fillColor=none;collapsible=0;dropTarget=0;points=[[0,0.5],[1,0.5]];portConstraint=eastwest;top=0;left=0;right=0;bottom=0;" parent="CEBWaWUKwCKMxq4C34Ef-14" vertex="1"><mxGeometry y="180" width="180" height="30" as="geometry"/></mxCell><mxCell id="CEBWaWUKwCKMxq4C34Ef-45" value="DT" style="shape=partialRectangle;connectable=0;fillColor=none;top=0;left=0;bottom=0;right=0;editable=1;overflow=hidden;" parent="CEBWaWUKwCKMxq4C34Ef-44" vertex="1"><mxGeometry width="30" height="30" as="geometry"><mxRectangle width="30" height="30" as="alternateBounds"/></mxGeometry></mxCell><mxCell id="CEBWaWUKwCKMxq4C34Ef-46" value="updatedAt" style="shape=partialRectangle;connectable=0;fillColor=none;top=0;left=0;bottom=0;right=0;align=left;spacingLeft=6;overflow=hidden;" parent="CEBWaWUKwCKMxq4C34Ef-44" vertex="1"><mxGeometry x="30" width="150" height="30" as="geometry"><mxRectangle width="150" height="30" as="alternateBounds"/></mxGeometry></mxCell><mxCell id="CEBWaWUKwCKMxq4C34Ef-50" value="User" style="shape=table;startSize=30;container=1;collapsible=1;childLayout=tableLayout;fixedRows=1;rowLines=0;fontStyle=1;align=center;resizeLast=1;fillColor=default;" parent="1" vertex="1"><mxGeometry x="60" y="366" width="180" height="120" as="geometry"/></mxCell><mxCell id="CEBWaWUKwCKMxq4C34Ef-51" value="" style="shape=tableRow;horizontal=0;startSize=0;swimlaneHead=0;swimlaneBody=0;fillColor=none;collapsible=0;dropTarget=0;points=[[0,0.5],[1,0.5]];portConstraint=eastwest;top=0;left=0;right=0;bottom=1;" parent="CEBWaWUKwCKMxq4C34Ef-50" vertex="1"><mxGeometry y="30" width="180" height="30" as="geometry"/></mxCell><mxCell id="CEBWaWUKwCKMxq4C34Ef-52" value="PK" style="shape=partialRectangle;connectable=0;fillColor=none;top=0;left=0;bottom=0;right=0;fontStyle=1;overflow=hidden;" parent="CEBWaWUKwCKMxq4C34Ef-51" vertex="1"><mxGeometry width="30" height="30" as="geometry"><mxRectangle width="30" height="30" as="alternateBounds"/></mxGeometry></mxCell><mxCell id="CEBWaWUKwCKMxq4C34Ef-53" value="UniqueID" style="shape=partialRectangle;connectable=0;fillColor=none;top=0;left=0;bottom=0;right=0;align=left;spacingLeft=6;fontStyle=5;overflow=hidden;" parent="CEBWaWUKwCKMxq4C34Ef-51" vertex="1"><mxGeometry x="30" width="150" height="30" as="geometry"><mxRectangle width="150" height="30" as="alternateBounds"/></mxGeometry></mxCell><mxCell id="CEBWaWUKwCKMxq4C34Ef-57" value="" style="shape=tableRow;horizontal=0;startSize=0;swimlaneHead=0;swimlaneBody=0;fillColor=none;collapsible=0;dropTarget=0;points=[[0,0.5],[1,0.5]];portConstraint=eastwest;top=0;left=0;right=0;bottom=0;" parent="CEBWaWUKwCKMxq4C34Ef-50" vertex="1"><mxGeometry y="60" width="180" height="30" as="geometry"/></mxCell><mxCell id="CEBWaWUKwCKMxq4C34Ef-58" value="" style="shape=partialRectangle;connectable=0;fillColor=none;top=0;left=0;bottom=0;right=0;editable=1;overflow=hidden;" parent="CEBWaWUKwCKMxq4C34Ef-57" vertex="1"><mxGeometry width="30" height="30" as="geometry"><mxRectangle width="30" height="30" as="alternateBounds"/></mxGeometry></mxCell><mxCell id="CEBWaWUKwCKMxq4C34Ef-59" value="Row 2" style="shape=partialRectangle;connectable=0;fillColor=none;top=0;left=0;bottom=0;right=0;align=left;spacingLeft=6;overflow=hidden;" parent="CEBWaWUKwCKMxq4C34Ef-57" vertex="1"><mxGeometry x="30" width="150" height="30" as="geometry"><mxRectangle width="150" height="30" as="alternateBounds"/></mxGeometry></mxCell><mxCell id="CEBWaWUKwCKMxq4C34Ef-60" value="" style="shape=tableRow;horizontal=0;startSize=0;swimlaneHead=0;swimlaneBody=0;fillColor=none;collapsible=0;dropTarget=0;points=[[0,0.5],[1,0.5]];portConstraint=eastwest;top=0;left=0;right=0;bottom=0;" parent="CEBWaWUKwCKMxq4C34Ef-50" vertex="1"><mxGeometry y="90" width="180" height="30" as="geometry"/></mxCell><mxCell id="CEBWaWUKwCKMxq4C34Ef-61" value="" style="shape=partialRectangle;connectable=0;fillColor=none;top=0;left=0;bottom=0;right=0;editable=1;overflow=hidden;" parent="CEBWaWUKwCKMxq4C34Ef-60" vertex="1"><mxGeometry width="30" height="30" as="geometry"><mxRectangle width="30" height="30" as="alternateBounds"/></mxGeometry></mxCell><mxCell id="CEBWaWUKwCKMxq4C34Ef-62" value="Row 3" style="shape=partialRectangle;connectable=0;fillColor=none;top=0;left=0;bottom=0;right=0;align=left;spacingLeft=6;overflow=hidden;" parent="CEBWaWUKwCKMxq4C34Ef-60" vertex="1"><mxGeometry x="30" width="150" height="30" as="geometry"><mxRectangle width="150" height="30" as="alternateBounds"/></mxGeometry></mxCell><mxCell id="CEBWaWUKwCKMxq4C34Ef-65" value="Purchase" style="shape=table;startSize=30;container=1;collapsible=1;childLayout=tableLayout;fixedRows=1;rowLines=0;fontStyle=1;align=center;resizeLast=1;fillColor=default;" parent="1" vertex="1"><mxGeometry x="60" y="785" width="180" height="180" as="geometry"/></mxCell><mxCell id="CEBWaWUKwCKMxq4C34Ef-66" value="" style="shape=tableRow;horizontal=0;startSize=0;swimlaneHead=0;swimlaneBody=0;fillColor=none;collapsible=0;dropTarget=0;points=[[0,0.5],[1,0.5]];portConstraint=eastwest;top=0;left=0;right=0;bottom=1;" parent="CEBWaWUKwCKMxq4C34Ef-65" vertex="1"><mxGeometry y="30" width="180" height="30" as="geometry"/></mxCell><mxCell id="CEBWaWUKwCKMxq4C34Ef-67" value="PK" style="shape=partialRectangle;connectable=0;fillColor=none;top=0;left=0;bottom=0;right=0;fontStyle=1;overflow=hidden;" parent="CEBWaWUKwCKMxq4C34Ef-66" vertex="1"><mxGeometry width="30" height="30" as="geometry"><mxRectangle width="30" height="30" as="alternateBounds"/></mxGeometry></mxCell><mxCell id="CEBWaWUKwCKMxq4C34Ef-68" value="UniqueID" style="shape=partialRectangle;connectable=0;fillColor=none;top=0;left=0;bottom=0;right=0;align=left;spacingLeft=6;fontStyle=5;overflow=hidden;" parent="CEBWaWUKwCKMxq4C34Ef-66" vertex="1"><mxGeometry x="30" width="150" height="30" as="geometry"><mxRectangle width="150" height="30" as="alternateBounds"/></mxGeometry></mxCell><mxCell id="CEBWaWUKwCKMxq4C34Ef-69" value="" style="shape=tableRow;horizontal=0;startSize=0;swimlaneHead=0;swimlaneBody=0;fillColor=none;collapsible=0;dropTarget=0;points=[[0,0.5],[1,0.5]];portConstraint=eastwest;top=0;left=0;right=0;bottom=0;" parent="CEBWaWUKwCKMxq4C34Ef-65" vertex="1"><mxGeometry y="60" width="180" height="30" as="geometry"/></mxCell><mxCell id="CEBWaWUKwCKMxq4C34Ef-70" value="str" style="shape=partialRectangle;connectable=0;fillColor=none;top=0;left=0;bottom=0;right=0;editable=1;overflow=hidden;" parent="CEBWaWUKwCKMxq4C34Ef-69" vertex="1"><mxGeometry width="30" height="30" as="geometry"><mxRectangle width="30" height="30" as="alternateBounds"/></mxGeometry></mxCell><mxCell id="CEBWaWUKwCKMxq4C34Ef-71" value="title" style="shape=partialRectangle;connectable=0;fillColor=none;top=0;left=0;bottom=0;right=0;align=left;spacingLeft=6;overflow=hidden;" parent="CEBWaWUKwCKMxq4C34Ef-69" vertex="1"><mxGeometry x="30" width="150" height="30" as="geometry"><mxRectangle width="150" height="30" as="alternateBounds"/></mxGeometry></mxCell><mxCell id="CEBWaWUKwCKMxq4C34Ef-72" value="" style="shape=tableRow;horizontal=0;startSize=0;swimlaneHead=0;swimlaneBody=0;fillColor=none;collapsible=0;dropTarget=0;points=[[0,0.5],[1,0.5]];portConstraint=eastwest;top=0;left=0;right=0;bottom=0;" parent="CEBWaWUKwCKMxq4C34Ef-65" vertex="1"><mxGeometry y="90" width="180" height="30" as="geometry"/></mxCell><mxCell id="CEBWaWUKwCKMxq4C34Ef-73" value="str" style="shape=partialRectangle;connectable=0;fillColor=none;top=0;left=0;bottom=0;right=0;editable=1;overflow=hidden;" parent="CEBWaWUKwCKMxq4C34Ef-72" vertex="1"><mxGeometry width="30" height="30" as="geometry"><mxRectangle width="30" height="30" as="alternateBounds"/></mxGeometry></mxCell><mxCell id="CEBWaWUKwCKMxq4C34Ef-74" value="description" style="shape=partialRectangle;connectable=0;fillColor=none;top=0;left=0;bottom=0;right=0;align=left;spacingLeft=6;overflow=hidden;" parent="CEBWaWUKwCKMxq4C34Ef-72" vertex="1"><mxGeometry x="30" width="150" height="30" as="geometry"><mxRectangle width="150" height="30" as="alternateBounds"/></mxGeometry></mxCell><mxCell id="CEBWaWUKwCKMxq4C34Ef-122" style="shape=tableRow;horizontal=0;startSize=0;swimlaneHead=0;swimlaneBody=0;fillColor=none;collapsible=0;dropTarget=0;points=[[0,0.5],[1,0.5]];portConstraint=eastwest;top=0;left=0;right=0;bottom=0;" parent="CEBWaWUKwCKMxq4C34Ef-65" vertex="1"><mxGeometry y="120" width="180" height="30" as="geometry"/></mxCell><mxCell id="CEBWaWUKwCKMxq4C34Ef-123" value="DT" style="shape=partialRectangle;connectable=0;fillColor=none;top=0;left=0;bottom=0;right=0;editable=1;overflow=hidden;" parent="CEBWaWUKwCKMxq4C34Ef-122" vertex="1"><mxGeometry width="30" height="30" as="geometry"><mxRectangle width="30" height="30" as="alternateBounds"/></mxGeometry></mxCell><mxCell id="CEBWaWUKwCKMxq4C34Ef-124" value="deadline" style="shape=partialRectangle;connectable=0;fillColor=none;top=0;left=0;bottom=0;right=0;align=left;spacingLeft=6;overflow=hidden;" parent="CEBWaWUKwCKMxq4C34Ef-122" vertex="1"><mxGeometry x="30" width="150" height="30" as="geometry"><mxRectangle width="150" height="30" as="alternateBounds"/></mxGeometry></mxCell><mxCell id="CEBWaWUKwCKMxq4C34Ef-75" value="" style="shape=tableRow;horizontal=0;startSize=0;swimlaneHead=0;swimlaneBody=0;fillColor=none;collapsible=0;dropTarget=0;points=[[0,0.5],[1,0.5]];portConstraint=eastwest;top=0;left=0;right=0;bottom=0;" parent="CEBWaWUKwCKMxq4C34Ef-65" vertex="1"><mxGeometry y="150" width="180" height="30" as="geometry"/></mxCell><mxCell id="CEBWaWUKwCKMxq4C34Ef-76" value="NO" style="shape=partialRectangle;connectable=0;fillColor=none;top=0;left=0;bottom=0;right=0;editable=1;overflow=hidden;" parent="CEBWaWUKwCKMxq4C34Ef-75" vertex="1"><mxGeometry width="30" height="30" as="geometry"><mxRectangle width="30" height="30" as="alternateBounds"/></mxGeometry></mxCell><mxCell id="CEBWaWUKwCKMxq4C34Ef-77" value="items" style="shape=partialRectangle;connectable=0;fillColor=none;top=0;left=0;bottom=0;right=0;align=left;spacingLeft=6;overflow=hidden;" parent="CEBWaWUKwCKMxq4C34Ef-75" vertex="1"><mxGeometry x="30" width="150" height="30" as="geometry"><mxRectangle width="150" height="30" as="alternateBounds"/></mxGeometry></mxCell><mxCell id="CEBWaWUKwCKMxq4C34Ef-78" value="PurchaseItem" style="shape=table;startSize=30;container=1;collapsible=1;childLayout=tableLayout;fixedRows=1;rowLines=0;fontStyle=1;align=center;resizeLast=1;fillColor=default;" parent="1" vertex="1"><mxGeometry x="303" y="785" width="180" height="150" as="geometry"/></mxCell><mxCell id="CEBWaWUKwCKMxq4C34Ef-82" value="" style="shape=tableRow;horizontal=0;startSize=0;swimlaneHead=0;swimlaneBody=0;fillColor=none;collapsible=0;dropTarget=0;points=[[0,0.5],[1,0.5]];portConstraint=eastwest;top=0;left=0;right=0;bottom=0;" parent="CEBWaWUKwCKMxq4C34Ef-78" vertex="1"><mxGeometry y="30" width="180" height="30" as="geometry"/></mxCell><mxCell id="CEBWaWUKwCKMxq4C34Ef-83" value="str" style="shape=partialRectangle;connectable=0;fillColor=none;top=0;left=0;bottom=0;right=0;editable=1;overflow=hidden;" parent="CEBWaWUKwCKMxq4C34Ef-82" vertex="1"><mxGeometry width="30" height="30" as="geometry"><mxRectangle width="30" height="30" as="alternateBounds"/></mxGeometry></mxCell><mxCell id="CEBWaWUKwCKMxq4C34Ef-84" value="title" style="shape=partialRectangle;connectable=0;fillColor=none;top=0;left=0;bottom=0;right=0;align=left;spacingLeft=6;overflow=hidden;" parent="CEBWaWUKwCKMxq4C34Ef-82" vertex="1"><mxGeometry x="30" width="150" height="30" as="geometry"><mxRectangle width="150" height="30" as="alternateBounds"/></mxGeometry></mxCell><mxCell id="CEBWaWUKwCKMxq4C34Ef-85" value="" style="shape=tableRow;horizontal=0;startSize=0;swimlaneHead=0;swimlaneBody=0;fillColor=none;collapsible=0;dropTarget=0;points=[[0,0.5],[1,0.5]];portConstraint=eastwest;top=0;left=0;right=0;bottom=0;" parent="CEBWaWUKwCKMxq4C34Ef-78" vertex="1"><mxGeometry y="60" width="180" height="30" as="geometry"/></mxCell><mxCell id="CEBWaWUKwCKMxq4C34Ef-86" value="num&#10;?+" style="shape=partialRectangle;connectable=0;fillColor=none;top=0;left=0;bottom=0;right=0;editable=1;overflow=hidden;" parent="CEBWaWUKwCKMxq4C34Ef-85" vertex="1"><mxGeometry width="30" height="30" as="geometry"><mxRectangle width="30" height="30" as="alternateBounds"/></mxGeometry></mxCell><mxCell id="CEBWaWUKwCKMxq4C34Ef-87" value="count" style="shape=partialRectangle;connectable=0;fillColor=none;top=0;left=0;bottom=0;right=0;align=left;spacingLeft=6;overflow=hidden;" parent="CEBWaWUKwCKMxq4C34Ef-85" vertex="1"><mxGeometry x="30" width="150" height="30" as="geometry"><mxRectangle width="150" height="30" as="alternateBounds"/></mxGeometry></mxCell><mxCell id="CEBWaWUKwCKMxq4C34Ef-157" style="shape=tableRow;horizontal=0;startSize=0;swimlaneHead=0;swimlaneBody=0;fillColor=none;collapsible=0;dropTarget=0;points=[[0,0.5],[1,0.5]];portConstraint=eastwest;top=0;left=0;right=0;bottom=0;" parent="CEBWaWUKwCKMxq4C34Ef-78" vertex="1"><mxGeometry y="90" width="180" height="30" as="geometry"/></mxCell><mxCell id="CEBWaWUKwCKMxq4C34Ef-158" value="str?" style="shape=partialRectangle;connectable=0;fillColor=none;top=0;left=0;bottom=0;right=0;editable=1;overflow=hidden;" parent="CEBWaWUKwCKMxq4C34Ef-157" vertex="1"><mxGeometry width="30" height="30" as="geometry"><mxRectangle width="30" height="30" as="alternateBounds"/></mxGeometry></mxCell><mxCell id="CEBWaWUKwCKMxq4C34Ef-159" value="unit" style="shape=partialRectangle;connectable=0;fillColor=none;top=0;left=0;bottom=0;right=0;align=left;spacingLeft=6;overflow=hidden;" parent="CEBWaWUKwCKMxq4C34Ef-157" vertex="1"><mxGeometry x="30" width="150" height="30" as="geometry"><mxRectangle width="150" height="30" as="alternateBounds"/></mxGeometry></mxCell><mxCell id="CEBWaWUKwCKMxq4C34Ef-92" style="shape=tableRow;horizontal=0;startSize=0;swimlaneHead=0;swimlaneBody=0;fillColor=none;collapsible=0;dropTarget=0;points=[[0,0.5],[1,0.5]];portConstraint=eastwest;top=0;left=0;right=0;bottom=0;" parent="CEBWaWUKwCKMxq4C34Ef-78" vertex="1"><mxGeometry y="120" width="180" height="30" as="geometry"/></mxCell><mxCell id="CEBWaWUKwCKMxq4C34Ef-93" value="NO" style="shape=partialRectangle;connectable=0;fillColor=none;top=0;left=0;bottom=0;right=0;editable=1;overflow=hidden;" parent="CEBWaWUKwCKMxq4C34Ef-92" vertex="1"><mxGeometry width="30" height="30" as="geometry"><mxRectangle width="30" height="30" as="alternateBounds"/></mxGeometry></mxCell><mxCell id="CEBWaWUKwCKMxq4C34Ef-94" value="decision" style="shape=partialRectangle;connectable=0;fillColor=none;top=0;left=0;bottom=0;right=0;align=left;spacingLeft=6;overflow=hidden;" parent="CEBWaWUKwCKMxq4C34Ef-92" vertex="1"><mxGeometry x="30" width="150" height="30" as="geometry"><mxRectangle width="150" height="30" as="alternateBounds"/></mxGeometry></mxCell><mxCell id="CEBWaWUKwCKMxq4C34Ef-96" style="edgeStyle=orthogonalEdgeStyle;rounded=0;orthogonalLoop=1;jettySize=auto;html=1;exitX=1;exitY=0.5;exitDx=0;exitDy=0;entryX=-0.008;entryY=0.1;entryDx=0;entryDy=0;entryPerimeter=0;" parent="1" source="CEBWaWUKwCKMxq4C34Ef-75" target="CEBWaWUKwCKMxq4C34Ef-78" edge="1"><mxGeometry relative="1" as="geometry"/></mxCell><mxCell id="CEBWaWUKwCKMxq4C34Ef-97" value="" style="shape=table;html=1;whiteSpace=wrap;startSize=0;container=1;collapsible=0;childLayout=tableLayout;fillColor=default;" parent="1" vertex="1"><mxGeometry x="-1362" y="-616" width="328.03125" height="480" as="geometry"/></mxCell><mxCell id="CEBWaWUKwCKMxq4C34Ef-98" value="" style="shape=tableRow;horizontal=0;startSize=0;swimlaneHead=0;swimlaneBody=0;top=0;left=0;bottom=0;right=0;collapsible=0;dropTarget=0;fillColor=none;points=[[0,0.5],[1,0.5]];portConstraint=eastwest;" parent="CEBWaWUKwCKMxq4C34Ef-97" vertex="1"><mxGeometry width="328.03125" height="40" as="geometry"/></mxCell><mxCell id="CEBWaWUKwCKMxq4C34Ef-99" value="Abbreviation" style="shape=partialRectangle;html=1;whiteSpace=wrap;connectable=0;fillColor=none;top=0;left=0;bottom=0;right=0;overflow=hidden;" parent="CEBWaWUKwCKMxq4C34Ef-98" vertex="1"><mxGeometry width="106" height="40" as="geometry"><mxRectangle width="106" height="40" as="alternateBounds"/></mxGeometry></mxCell><mxCell id="CEBWaWUKwCKMxq4C34Ef-100" value="Explanation" style="shape=partialRectangle;html=1;whiteSpace=wrap;connectable=0;fillColor=none;top=0;left=0;bottom=0;right=0;overflow=hidden;" parent="CEBWaWUKwCKMxq4C34Ef-98" vertex="1"><mxGeometry x="106" width="222" height="40" as="geometry"><mxRectangle width="222" height="40" as="alternateBounds"/></mxGeometry></mxCell><mxCell id="CEBWaWUKwCKMxq4C34Ef-102" value="" style="shape=tableRow;horizontal=0;startSize=0;swimlaneHead=0;swimlaneBody=0;top=0;left=0;bottom=0;right=0;collapsible=0;dropTarget=0;fillColor=none;points=[[0,0.5],[1,0.5]];portConstraint=eastwest;" parent="CEBWaWUKwCKMxq4C34Ef-97" vertex="1"><mxGeometry y="40" width="328.03125" height="40" as="geometry"/></mxCell><mxCell id="CEBWaWUKwCKMxq4C34Ef-103" value="PK" style="shape=partialRectangle;html=1;whiteSpace=wrap;connectable=0;fillColor=none;top=0;left=0;bottom=0;right=0;overflow=hidden;" parent="CEBWaWUKwCKMxq4C34Ef-102" vertex="1"><mxGeometry width="106" height="40" as="geometry"><mxRectangle width="106" height="40" as="alternateBounds"/></mxGeometry></mxCell><mxCell id="CEBWaWUKwCKMxq4C34Ef-104" value="primary key" style="shape=partialRectangle;html=1;whiteSpace=wrap;connectable=0;fillColor=none;top=0;left=0;bottom=0;right=0;overflow=hidden;" parent="CEBWaWUKwCKMxq4C34Ef-102" vertex="1"><mxGeometry x="106" width="222" height="40" as="geometry"><mxRectangle width="222" height="40" as="alternateBounds"/></mxGeometry></mxCell><mxCell id="CEBWaWUKwCKMxq4C34Ef-106" value="" style="shape=tableRow;horizontal=0;startSize=0;swimlaneHead=0;swimlaneBody=0;top=0;left=0;bottom=0;right=0;collapsible=0;dropTarget=0;fillColor=none;points=[[0,0.5],[1,0.5]];portConstraint=eastwest;" parent="CEBWaWUKwCKMxq4C34Ef-97" vertex="1"><mxGeometry y="80" width="328.03125" height="40" as="geometry"/></mxCell><mxCell id="CEBWaWUKwCKMxq4C34Ef-107" value="DT" style="shape=partialRectangle;html=1;whiteSpace=wrap;connectable=0;fillColor=none;top=0;left=0;bottom=0;right=0;overflow=hidden;" parent="CEBWaWUKwCKMxq4C34Ef-106" vertex="1"><mxGeometry width="106" height="40" as="geometry"><mxRectangle width="106" height="40" as="alternateBounds"/></mxGeometry></mxCell><mxCell id="CEBWaWUKwCKMxq4C34Ef-108" value="datetime" style="shape=partialRectangle;html=1;whiteSpace=wrap;connectable=0;fillColor=none;top=0;left=0;bottom=0;right=0;overflow=hidden;" parent="CEBWaWUKwCKMxq4C34Ef-106" vertex="1"><mxGeometry x="106" width="222" height="40" as="geometry"><mxRectangle width="222" height="40" as="alternateBounds"/></mxGeometry></mxCell><mxCell id="CEBWaWUKwCKMxq4C34Ef-110" style="shape=tableRow;horizontal=0;startSize=0;swimlaneHead=0;swimlaneBody=0;top=0;left=0;bottom=0;right=0;collapsible=0;dropTarget=0;fillColor=none;points=[[0,0.5],[1,0.5]];portConstraint=eastwest;" parent="CEBWaWUKwCKMxq4C34Ef-97" vertex="1"><mxGeometry y="120" width="328.03125" height="40" as="geometry"/></mxCell><mxCell id="CEBWaWUKwCKMxq4C34Ef-111" value="FK" style="shape=partialRectangle;html=1;whiteSpace=wrap;connectable=0;fillColor=none;top=0;left=0;bottom=0;right=0;overflow=hidden;" parent="CEBWaWUKwCKMxq4C34Ef-110" vertex="1"><mxGeometry width="106" height="40" as="geometry"><mxRectangle width="106" height="40" as="alternateBounds"/></mxGeometry></mxCell><mxCell id="CEBWaWUKwCKMxq4C34Ef-112" value="foreign key" style="shape=partialRectangle;html=1;whiteSpace=wrap;connectable=0;fillColor=none;top=0;left=0;bottom=0;right=0;overflow=hidden;" parent="CEBWaWUKwCKMxq4C34Ef-110" vertex="1"><mxGeometry x="106" width="222" height="40" as="geometry"><mxRectangle width="222" height="40" as="alternateBounds"/></mxGeometry></mxCell><mxCell id="CEBWaWUKwCKMxq4C34Ef-113" style="shape=tableRow;horizontal=0;startSize=0;swimlaneHead=0;swimlaneBody=0;top=0;left=0;bottom=0;right=0;collapsible=0;dropTarget=0;fillColor=none;points=[[0,0.5],[1,0.5]];portConstraint=eastwest;" parent="CEBWaWUKwCKMxq4C34Ef-97" vertex="1"><mxGeometry y="160" width="328.03125" height="40" as="geometry"/></mxCell><mxCell id="CEBWaWUKwCKMxq4C34Ef-114" value="NO" style="shape=partialRectangle;html=1;whiteSpace=wrap;connectable=0;fillColor=none;top=0;left=0;bottom=0;right=0;overflow=hidden;" parent="CEBWaWUKwCKMxq4C34Ef-113" vertex="1"><mxGeometry width="106" height="40" as="geometry"><mxRectangle width="106" height="40" as="alternateBounds"/></mxGeometry></mxCell><mxCell id="CEBWaWUKwCKMxq4C34Ef-115" value="nested object" style="shape=partialRectangle;html=1;whiteSpace=wrap;connectable=0;fillColor=none;top=0;left=0;bottom=0;right=0;overflow=hidden;" parent="CEBWaWUKwCKMxq4C34Ef-113" vertex="1"><mxGeometry x="106" width="222" height="40" as="geometry"><mxRectangle width="222" height="40" as="alternateBounds"/></mxGeometry></mxCell><mxCell id="CEBWaWUKwCKMxq4C34Ef-116" style="shape=tableRow;horizontal=0;startSize=0;swimlaneHead=0;swimlaneBody=0;top=0;left=0;bottom=0;right=0;collapsible=0;dropTarget=0;fillColor=none;points=[[0,0.5],[1,0.5]];portConstraint=eastwest;" parent="CEBWaWUKwCKMxq4C34Ef-97" vertex="1"><mxGeometry y="200" width="328.03125" height="40" as="geometry"/></mxCell><mxCell id="CEBWaWUKwCKMxq4C34Ef-117" value="&amp;lt;type&amp;gt;[]" style="shape=partialRectangle;html=1;whiteSpace=wrap;connectable=0;fillColor=none;top=0;left=0;bottom=0;right=0;overflow=hidden;" parent="CEBWaWUKwCKMxq4C34Ef-116" vertex="1"><mxGeometry width="106" height="40" as="geometry"><mxRectangle width="106" height="40" as="alternateBounds"/></mxGeometry></mxCell><mxCell id="CEBWaWUKwCKMxq4C34Ef-118" value="list of &amp;lt;type&amp;gt;" style="shape=partialRectangle;html=1;whiteSpace=wrap;connectable=0;fillColor=none;top=0;left=0;bottom=0;right=0;overflow=hidden;" parent="CEBWaWUKwCKMxq4C34Ef-116" vertex="1"><mxGeometry x="106" width="222" height="40" as="geometry"><mxRectangle width="222" height="40" as="alternateBounds"/></mxGeometry></mxCell><mxCell id="CEBWaWUKwCKMxq4C34Ef-151" style="shape=tableRow;horizontal=0;startSize=0;swimlaneHead=0;swimlaneBody=0;top=0;left=0;bottom=0;right=0;collapsible=0;dropTarget=0;fillColor=none;points=[[0,0.5],[1,0.5]];portConstraint=eastwest;" parent="CEBWaWUKwCKMxq4C34Ef-97" vertex="1"><mxGeometry y="240" width="328.03125" height="40" as="geometry"/></mxCell><mxCell id="CEBWaWUKwCKMxq4C34Ef-152" value="&amp;lt;type&amp;gt;?" style="shape=partialRectangle;html=1;whiteSpace=wrap;connectable=0;fillColor=none;top=0;left=0;bottom=0;right=0;overflow=hidden;" parent="CEBWaWUKwCKMxq4C34Ef-151" vertex="1"><mxGeometry width="106" height="40" as="geometry"><mxRectangle width="106" height="40" as="alternateBounds"/></mxGeometry></mxCell><mxCell id="CEBWaWUKwCKMxq4C34Ef-153" value="nullable" style="shape=partialRectangle;html=1;whiteSpace=wrap;connectable=0;fillColor=none;top=0;left=0;bottom=0;right=0;overflow=hidden;" parent="CEBWaWUKwCKMxq4C34Ef-151" vertex="1"><mxGeometry x="106" width="222" height="40" as="geometry"><mxRectangle width="222" height="40" as="alternateBounds"/></mxGeometry></mxCell><mxCell id="CEBWaWUKwCKMxq4C34Ef-154" style="shape=tableRow;horizontal=0;startSize=0;swimlaneHead=0;swimlaneBody=0;top=0;left=0;bottom=0;right=0;collapsible=0;dropTarget=0;fillColor=none;points=[[0,0.5],[1,0.5]];portConstraint=eastwest;" parent="CEBWaWUKwCKMxq4C34Ef-97" vertex="1"><mxGeometry y="280" width="328.03125" height="40" as="geometry"/></mxCell><mxCell id="CEBWaWUKwCKMxq4C34Ef-155" value="num&amp;lt;+/-&amp;gt;" style="shape=partialRectangle;html=1;whiteSpace=wrap;connectable=0;fillColor=none;top=0;left=0;bottom=0;right=0;overflow=hidden;" parent="CEBWaWUKwCKMxq4C34Ef-154" vertex="1"><mxGeometry width="106" height="40" as="geometry"><mxRectangle width="106" height="40" as="alternateBounds"/></mxGeometry></mxCell><mxCell id="CEBWaWUKwCKMxq4C34Ef-156" value="positive/negative number" style="shape=partialRectangle;html=1;whiteSpace=wrap;connectable=0;fillColor=none;top=0;left=0;bottom=0;right=0;overflow=hidden;" parent="CEBWaWUKwCKMxq4C34Ef-154" vertex="1"><mxGeometry x="106" width="222" height="40" as="geometry"><mxRectangle width="222" height="40" as="alternateBounds"/></mxGeometry></mxCell><mxCell id="CEBWaWUKwCKMxq4C34Ef-119" style="shape=tableRow;horizontal=0;startSize=0;swimlaneHead=0;swimlaneBody=0;top=0;left=0;bottom=0;right=0;collapsible=0;dropTarget=0;fillColor=none;points=[[0,0.5],[1,0.5]];portConstraint=eastwest;" parent="CEBWaWUKwCKMxq4C34Ef-97" vertex="1"><mxGeometry y="320" width="328.03125" height="40" as="geometry"/></mxCell><mxCell id="CEBWaWUKwCKMxq4C34Ef-120" value="&amp;lt;type&amp;gt;&lt;br&gt;enum" style="shape=partialRectangle;html=1;whiteSpace=wrap;connectable=0;fillColor=none;top=0;left=0;bottom=0;right=0;overflow=hidden;" parent="CEBWaWUKwCKMxq4C34Ef-119" vertex="1"><mxGeometry width="106" height="40" as="geometry"><mxRectangle width="106" height="40" as="alternateBounds"/></mxGeometry></mxCell><mxCell id="CEBWaWUKwCKMxq4C34Ef-121" value="enum with type &amp;lt;type&amp;gt;" style="shape=partialRectangle;html=1;whiteSpace=wrap;connectable=0;fillColor=none;top=0;left=0;bottom=0;right=0;overflow=hidden;" parent="CEBWaWUKwCKMxq4C34Ef-119" vertex="1"><mxGeometry x="106" width="222" height="40" as="geometry"><mxRectangle width="222" height="40" as="alternateBounds"/></mxGeometry></mxCell><mxCell id="22" style="shape=tableRow;horizontal=0;startSize=0;swimlaneHead=0;swimlaneBody=0;top=0;left=0;bottom=0;right=0;collapsible=0;dropTarget=0;fillColor=none;points=[[0,0.5],[1,0.5]];portConstraint=eastwest;" vertex="1" parent="CEBWaWUKwCKMxq4C34Ef-97"><mxGeometry y="360" width="328.03125" height="40" as="geometry"/></mxCell><mxCell id="23" value="USA" style="shape=partialRectangle;html=1;whiteSpace=wrap;connectable=0;fillColor=none;top=0;left=0;bottom=0;right=0;overflow=hidden;" vertex="1" parent="22"><mxGeometry width="106" height="40" as="geometry"><mxRectangle width="106" height="40" as="alternateBounds"/></mxGeometry></mxCell><mxCell id="24" value="unique Id for super admin" style="shape=partialRectangle;html=1;whiteSpace=wrap;connectable=0;fillColor=none;top=0;left=0;bottom=0;right=0;overflow=hidden;" vertex="1" parent="22"><mxGeometry x="106" width="222" height="40" as="geometry"><mxRectangle width="222" height="40" as="alternateBounds"/></mxGeometry></mxCell><mxCell id="CEBWaWUKwCKMxq4C34Ef-144" style="shape=tableRow;horizontal=0;startSize=0;swimlaneHead=0;swimlaneBody=0;top=0;left=0;bottom=0;right=0;collapsible=0;dropTarget=0;fillColor=none;points=[[0,0.5],[1,0.5]];portConstraint=eastwest;" parent="CEBWaWUKwCKMxq4C34Ef-97" vertex="1"><mxGeometry y="400" width="328.03125" height="40" as="geometry"/></mxCell><mxCell id="CEBWaWUKwCKMxq4C34Ef-145" style="shape=partialRectangle;html=1;whiteSpace=wrap;connectable=0;fillColor=#d5e8d4;top=0;left=0;bottom=0;right=0;overflow=hidden;strokeColor=#82b366;" parent="CEBWaWUKwCKMxq4C34Ef-144" vertex="1"><mxGeometry width="106" height="40" as="geometry"><mxRectangle width="106" height="40" as="alternateBounds"/></mxGeometry></mxCell><mxCell id="CEBWaWUKwCKMxq4C34Ef-146" value="enum list" style="shape=partialRectangle;html=1;whiteSpace=wrap;connectable=0;fillColor=none;top=0;left=0;bottom=0;right=0;overflow=hidden;" parent="CEBWaWUKwCKMxq4C34Ef-144" vertex="1"><mxGeometry x="106" width="222" height="40" as="geometry"><mxRectangle width="222" height="40" as="alternateBounds"/></mxGeometry></mxCell><mxCell id="OAINGEWpF4Lm4pN9tbVx-62" style="shape=tableRow;horizontal=0;startSize=0;swimlaneHead=0;swimlaneBody=0;top=0;left=0;bottom=0;right=0;collapsible=0;dropTarget=0;fillColor=none;points=[[0,0.5],[1,0.5]];portConstraint=eastwest;" parent="CEBWaWUKwCKMxq4C34Ef-97" vertex="1"><mxGeometry y="440" width="328.03125" height="40" as="geometry"/></mxCell><mxCell id="OAINGEWpF4Lm4pN9tbVx-63" style="shape=partialRectangle;html=1;whiteSpace=wrap;connectable=0;fillColor=#e1d5e7;top=0;left=0;bottom=0;right=0;overflow=hidden;strokeColor=#9673a6;" parent="OAINGEWpF4Lm4pN9tbVx-62" vertex="1"><mxGeometry width="106" height="40" as="geometry"><mxRectangle width="106" height="40" as="alternateBounds"/></mxGeometry></mxCell><mxCell id="OAINGEWpF4Lm4pN9tbVx-64" value="can write only super admin" style="shape=partialRectangle;html=1;whiteSpace=wrap;connectable=0;fillColor=none;top=0;left=0;bottom=0;right=0;overflow=hidden;" parent="OAINGEWpF4Lm4pN9tbVx-62" vertex="1"><mxGeometry x="106" width="222" height="40" as="geometry"><mxRectangle width="222" height="40" as="alternateBounds"/></mxGeometry></mxCell><mxCell id="CEBWaWUKwCKMxq4C34Ef-125" value="PurchaseDecision" style="shape=table;startSize=30;container=1;collapsible=1;childLayout=tableLayout;fixedRows=1;rowLines=0;fontStyle=1;align=center;resizeLast=1;fillColor=default;" parent="1" vertex="1"><mxGeometry x="559" y="785" width="180" height="120" as="geometry"/></mxCell><mxCell id="CEBWaWUKwCKMxq4C34Ef-129" value="" style="shape=tableRow;horizontal=0;startSize=0;swimlaneHead=0;swimlaneBody=0;fillColor=none;collapsible=0;dropTarget=0;points=[[0,0.5],[1,0.5]];portConstraint=eastwest;top=0;left=0;right=0;bottom=0;" parent="CEBWaWUKwCKMxq4C34Ef-125" vertex="1"><mxGeometry y="30" width="180" height="30" as="geometry"/></mxCell><mxCell id="CEBWaWUKwCKMxq4C34Ef-130" value="enum" style="shape=partialRectangle;connectable=0;fillColor=none;top=0;left=0;bottom=0;right=0;editable=1;overflow=hidden;" parent="CEBWaWUKwCKMxq4C34Ef-129" vertex="1"><mxGeometry width="30" height="30" as="geometry"><mxRectangle width="30" height="30" as="alternateBounds"/></mxGeometry></mxCell><mxCell id="CEBWaWUKwCKMxq4C34Ef-131" value="status" style="shape=partialRectangle;connectable=0;fillColor=none;top=0;left=0;bottom=0;right=0;align=left;spacingLeft=6;overflow=hidden;" parent="CEBWaWUKwCKMxq4C34Ef-129" vertex="1"><mxGeometry x="30" width="150" height="30" as="geometry"><mxRectangle width="150" height="30" as="alternateBounds"/></mxGeometry></mxCell><mxCell id="CEBWaWUKwCKMxq4C34Ef-132" value="" style="shape=tableRow;horizontal=0;startSize=0;swimlaneHead=0;swimlaneBody=0;fillColor=none;collapsible=0;dropTarget=0;points=[[0,0.5],[1,0.5]];portConstraint=eastwest;top=0;left=0;right=0;bottom=0;" parent="CEBWaWUKwCKMxq4C34Ef-125" vertex="1"><mxGeometry y="60" width="180" height="30" as="geometry"/></mxCell><mxCell id="CEBWaWUKwCKMxq4C34Ef-133" value="str?" style="shape=partialRectangle;connectable=0;fillColor=none;top=0;left=0;bottom=0;right=0;editable=1;overflow=hidden;" parent="CEBWaWUKwCKMxq4C34Ef-132" vertex="1"><mxGeometry width="30" height="30" as="geometry"><mxRectangle width="30" height="30" as="alternateBounds"/></mxGeometry></mxCell><mxCell id="CEBWaWUKwCKMxq4C34Ef-134" value="description" style="shape=partialRectangle;connectable=0;fillColor=none;top=0;left=0;bottom=0;right=0;align=left;spacingLeft=6;overflow=hidden;" parent="CEBWaWUKwCKMxq4C34Ef-132" vertex="1"><mxGeometry x="30" width="150" height="30" as="geometry"><mxRectangle width="150" height="30" as="alternateBounds"/></mxGeometry></mxCell><mxCell id="CEBWaWUKwCKMxq4C34Ef-148" style="shape=tableRow;horizontal=0;startSize=0;swimlaneHead=0;swimlaneBody=0;fillColor=none;collapsible=0;dropTarget=0;points=[[0,0.5],[1,0.5]];portConstraint=eastwest;top=0;left=0;right=0;bottom=0;" parent="CEBWaWUKwCKMxq4C34Ef-125" vertex="1"><mxGeometry y="90" width="180" height="30" as="geometry"/></mxCell><mxCell id="CEBWaWUKwCKMxq4C34Ef-149" value="num&#10;?+" style="shape=partialRectangle;connectable=0;fillColor=none;top=0;left=0;bottom=0;right=0;editable=1;overflow=hidden;" parent="CEBWaWUKwCKMxq4C34Ef-148" vertex="1"><mxGeometry width="30" height="30" as="geometry"><mxRectangle width="30" height="30" as="alternateBounds"/></mxGeometry></mxCell><mxCell id="CEBWaWUKwCKMxq4C34Ef-150" value="count" style="shape=partialRectangle;connectable=0;fillColor=none;top=0;left=0;bottom=0;right=0;align=left;spacingLeft=6;overflow=hidden;" parent="CEBWaWUKwCKMxq4C34Ef-148" vertex="1"><mxGeometry x="30" width="150" height="30" as="geometry"><mxRectangle width="150" height="30" as="alternateBounds"/></mxGeometry></mxCell><mxCell id="CEBWaWUKwCKMxq4C34Ef-138" style="edgeStyle=orthogonalEdgeStyle;rounded=0;orthogonalLoop=1;jettySize=auto;html=1;exitX=1;exitY=0.5;exitDx=0;exitDy=0;entryX=0.003;entryY=0.178;entryDx=0;entryDy=0;entryPerimeter=0;" parent="1" source="CEBWaWUKwCKMxq4C34Ef-92" target="CEBWaWUKwCKMxq4C34Ef-125" edge="1"><mxGeometry relative="1" as="geometry"/></mxCell><mxCell id="CEBWaWUKwCKMxq4C34Ef-139" value="PurchaseDecisionStatus" style="swimlane;fontStyle=0;childLayout=stackLayout;horizontal=1;startSize=26;horizontalStack=0;resizeParent=1;resizeParentMax=0;resizeLast=0;collapsible=1;marginBottom=0;align=center;fontSize=14;fillColor=#d5e8d4;strokeColor=#82b366;" parent="1" vertex="1"><mxGeometry x="816" y="785" width="160" height="146" as="geometry"/></mxCell><mxCell id="CEBWaWUKwCKMxq4C34Ef-140" value="COMPLETE" style="text;strokeColor=none;fillColor=none;spacingLeft=4;spacingRight=4;overflow=hidden;rotatable=0;points=[[0,0.5],[1,0.5]];portConstraint=eastwest;fontSize=12;" parent="CEBWaWUKwCKMxq4C34Ef-139" vertex="1"><mxGeometry y="26" width="160" height="30" as="geometry"/></mxCell><mxCell id="CEBWaWUKwCKMxq4C34Ef-141" value="PENDING" style="text;strokeColor=none;fillColor=none;spacingLeft=4;spacingRight=4;overflow=hidden;rotatable=0;points=[[0,0.5],[1,0.5]];portConstraint=eastwest;fontSize=12;" parent="CEBWaWUKwCKMxq4C34Ef-139" vertex="1"><mxGeometry y="56" width="160" height="30" as="geometry"/></mxCell><mxCell id="CEBWaWUKwCKMxq4C34Ef-142" value="REJECTED" style="text;strokeColor=none;fillColor=none;spacingLeft=4;spacingRight=4;overflow=hidden;rotatable=0;points=[[0,0.5],[1,0.5]];portConstraint=eastwest;fontSize=12;" parent="CEBWaWUKwCKMxq4C34Ef-139" vertex="1"><mxGeometry y="86" width="160" height="30" as="geometry"/></mxCell><mxCell id="CEBWaWUKwCKMxq4C34Ef-147" value="PARTIAL" style="text;strokeColor=none;fillColor=none;spacingLeft=4;spacingRight=4;overflow=hidden;rotatable=0;points=[[0,0.5],[1,0.5]];portConstraint=eastwest;fontSize=12;" parent="CEBWaWUKwCKMxq4C34Ef-139" vertex="1"><mxGeometry y="116" width="160" height="30" as="geometry"/></mxCell><mxCell id="CEBWaWUKwCKMxq4C34Ef-143" style="edgeStyle=orthogonalEdgeStyle;rounded=0;orthogonalLoop=1;jettySize=auto;html=1;exitX=1;exitY=0.5;exitDx=0;exitDy=0;entryX=-0.003;entryY=0.086;entryDx=0;entryDy=0;entryPerimeter=0;" parent="1" source="CEBWaWUKwCKMxq4C34Ef-129" target="CEBWaWUKwCKMxq4C34Ef-139" edge="1"><mxGeometry relative="1" as="geometry"/></mxCell><mxCell id="OAINGEWpF4Lm4pN9tbVx-1" value="UserTask" style="shape=table;startSize=30;container=1;collapsible=1;childLayout=tableLayout;fixedRows=1;rowLines=0;fontStyle=1;align=center;resizeLast=1;" parent="1" vertex="1"><mxGeometry x="317" y="297" width="180" height="90" as="geometry"/></mxCell><mxCell id="OAINGEWpF4Lm4pN9tbVx-5" value="" style="shape=tableRow;horizontal=0;startSize=0;swimlaneHead=0;swimlaneBody=0;fillColor=none;collapsible=0;dropTarget=0;points=[[0,0.5],[1,0.5]];portConstraint=eastwest;top=0;left=0;right=0;bottom=0;" parent="OAINGEWpF4Lm4pN9tbVx-1" vertex="1"><mxGeometry y="30" width="180" height="30" as="geometry"/></mxCell><mxCell id="OAINGEWpF4Lm4pN9tbVx-6" value="FK" style="shape=partialRectangle;connectable=0;fillColor=none;top=0;left=0;bottom=0;right=0;editable=1;overflow=hidden;" parent="OAINGEWpF4Lm4pN9tbVx-5" vertex="1"><mxGeometry width="30" height="30" as="geometry"><mxRectangle width="30" height="30" as="alternateBounds"/></mxGeometry></mxCell><mxCell id="OAINGEWpF4Lm4pN9tbVx-7" value="userId" style="shape=partialRectangle;connectable=0;fillColor=none;top=0;left=0;bottom=0;right=0;align=left;spacingLeft=6;overflow=hidden;" parent="OAINGEWpF4Lm4pN9tbVx-5" vertex="1"><mxGeometry x="30" width="150" height="30" as="geometry"><mxRectangle width="150" height="30" as="alternateBounds"/></mxGeometry></mxCell><mxCell id="OAINGEWpF4Lm4pN9tbVx-8" value="" style="shape=tableRow;horizontal=0;startSize=0;swimlaneHead=0;swimlaneBody=0;fillColor=none;collapsible=0;dropTarget=0;points=[[0,0.5],[1,0.5]];portConstraint=eastwest;top=0;left=0;right=0;bottom=0;" parent="OAINGEWpF4Lm4pN9tbVx-1" vertex="1"><mxGeometry y="60" width="180" height="30" as="geometry"/></mxCell><mxCell id="OAINGEWpF4Lm4pN9tbVx-9" value="FK" style="shape=partialRectangle;connectable=0;fillColor=none;top=0;left=0;bottom=0;right=0;editable=1;overflow=hidden;" parent="OAINGEWpF4Lm4pN9tbVx-8" vertex="1"><mxGeometry width="30" height="30" as="geometry"><mxRectangle width="30" height="30" as="alternateBounds"/></mxGeometry></mxCell><mxCell id="OAINGEWpF4Lm4pN9tbVx-10" value="taskId" style="shape=partialRectangle;connectable=0;fillColor=none;top=0;left=0;bottom=0;right=0;align=left;spacingLeft=6;overflow=hidden;" parent="OAINGEWpF4Lm4pN9tbVx-8" vertex="1"><mxGeometry x="30" width="150" height="30" as="geometry"><mxRectangle width="150" height="30" as="alternateBounds"/></mxGeometry></mxCell><mxCell id="OAINGEWpF4Lm4pN9tbVx-14" style="edgeStyle=orthogonalEdgeStyle;rounded=0;orthogonalLoop=1;jettySize=auto;html=1;exitX=0;exitY=0.5;exitDx=0;exitDy=0;entryX=1;entryY=0.5;entryDx=0;entryDy=0;" parent="1" source="OAINGEWpF4Lm4pN9tbVx-5" target="CEBWaWUKwCKMxq4C34Ef-51" edge="1"><mxGeometry relative="1" as="geometry"/></mxCell><mxCell id="OAINGEWpF4Lm4pN9tbVx-15" style="edgeStyle=orthogonalEdgeStyle;rounded=0;orthogonalLoop=1;jettySize=auto;html=1;exitX=1;exitY=0.5;exitDx=0;exitDy=0;entryX=0;entryY=0.5;entryDx=0;entryDy=0;" parent="1" source="OAINGEWpF4Lm4pN9tbVx-8" target="CEBWaWUKwCKMxq4C34Ef-15" edge="1"><mxGeometry relative="1" as="geometry"/></mxCell><mxCell id="OAINGEWpF4Lm4pN9tbVx-16" value="Company" style="shape=table;startSize=30;container=1;collapsible=1;childLayout=tableLayout;fixedRows=1;rowLines=0;fontStyle=1;align=center;resizeLast=1;" parent="1" vertex="1"><mxGeometry x="-528" y="170" width="180" height="90" as="geometry"/></mxCell><mxCell id="OAINGEWpF4Lm4pN9tbVx-17" value="" style="shape=tableRow;horizontal=0;startSize=0;swimlaneHead=0;swimlaneBody=0;fillColor=none;collapsible=0;dropTarget=0;points=[[0,0.5],[1,0.5]];portConstraint=eastwest;top=0;left=0;right=0;bottom=1;" parent="OAINGEWpF4Lm4pN9tbVx-16" vertex="1"><mxGeometry y="30" width="180" height="30" as="geometry"/></mxCell><mxCell id="OAINGEWpF4Lm4pN9tbVx-18" value="PK" style="shape=partialRectangle;connectable=0;fillColor=none;top=0;left=0;bottom=0;right=0;fontStyle=1;overflow=hidden;" parent="OAINGEWpF4Lm4pN9tbVx-17" vertex="1"><mxGeometry width="30" height="30" as="geometry"><mxRectangle width="30" height="30" as="alternateBounds"/></mxGeometry></mxCell><mxCell id="OAINGEWpF4Lm4pN9tbVx-19" value="UniqueID" style="shape=partialRectangle;connectable=0;fillColor=none;top=0;left=0;bottom=0;right=0;align=left;spacingLeft=6;fontStyle=5;overflow=hidden;" parent="OAINGEWpF4Lm4pN9tbVx-17" vertex="1"><mxGeometry x="30" width="150" height="30" as="geometry"><mxRectangle width="150" height="30" as="alternateBounds"/></mxGeometry></mxCell><mxCell id="OAINGEWpF4Lm4pN9tbVx-26" value="" style="shape=tableRow;horizontal=0;startSize=0;swimlaneHead=0;swimlaneBody=0;fillColor=none;collapsible=0;dropTarget=0;points=[[0,0.5],[1,0.5]];portConstraint=eastwest;top=0;left=0;right=0;bottom=0;" parent="OAINGEWpF4Lm4pN9tbVx-16" vertex="1"><mxGeometry y="60" width="180" height="30" as="geometry"/></mxCell><mxCell id="OAINGEWpF4Lm4pN9tbVx-27" value="" style="shape=partialRectangle;connectable=0;fillColor=none;top=0;left=0;bottom=0;right=0;editable=1;overflow=hidden;" parent="OAINGEWpF4Lm4pN9tbVx-26" vertex="1"><mxGeometry width="30" height="30" as="geometry"><mxRectangle width="30" height="30" as="alternateBounds"/></mxGeometry></mxCell><mxCell id="OAINGEWpF4Lm4pN9tbVx-28" value="Row 3" style="shape=partialRectangle;connectable=0;fillColor=none;top=0;left=0;bottom=0;right=0;align=left;spacingLeft=6;overflow=hidden;" parent="OAINGEWpF4Lm4pN9tbVx-26" vertex="1"><mxGeometry x="30" width="150" height="30" as="geometry"><mxRectangle width="150" height="30" as="alternateBounds"/></mxGeometry></mxCell><mxCell id="OAINGEWpF4Lm4pN9tbVx-29" value="CompanyUser" style="shape=table;startSize=30;container=1;collapsible=1;childLayout=tableLayout;fixedRows=1;rowLines=0;fontStyle=1;align=center;resizeLast=1;" parent="1" vertex="1"><mxGeometry x="-234" y="274" width="180" height="120" as="geometry"/></mxCell><mxCell id="OAINGEWpF4Lm4pN9tbVx-33" value="" style="shape=tableRow;horizontal=0;startSize=0;swimlaneHead=0;swimlaneBody=0;fillColor=none;collapsible=0;dropTarget=0;points=[[0,0.5],[1,0.5]];portConstraint=eastwest;top=0;left=0;right=0;bottom=0;" parent="OAINGEWpF4Lm4pN9tbVx-29" vertex="1"><mxGeometry y="30" width="180" height="30" as="geometry"/></mxCell><mxCell id="OAINGEWpF4Lm4pN9tbVx-34" value="FK" style="shape=partialRectangle;connectable=0;fillColor=none;top=0;left=0;bottom=0;right=0;editable=1;overflow=hidden;" parent="OAINGEWpF4Lm4pN9tbVx-33" vertex="1"><mxGeometry width="30" height="30" as="geometry"><mxRectangle width="30" height="30" as="alternateBounds"/></mxGeometry></mxCell><mxCell id="OAINGEWpF4Lm4pN9tbVx-35" value="companyId" style="shape=partialRectangle;connectable=0;fillColor=none;top=0;left=0;bottom=0;right=0;align=left;spacingLeft=6;overflow=hidden;" parent="OAINGEWpF4Lm4pN9tbVx-33" vertex="1"><mxGeometry x="30" width="150" height="30" as="geometry"><mxRectangle width="150" height="30" as="alternateBounds"/></mxGeometry></mxCell><mxCell id="OAINGEWpF4Lm4pN9tbVx-36" value="" style="shape=tableRow;horizontal=0;startSize=0;swimlaneHead=0;swimlaneBody=0;fillColor=none;collapsible=0;dropTarget=0;points=[[0,0.5],[1,0.5]];portConstraint=eastwest;top=0;left=0;right=0;bottom=0;" parent="OAINGEWpF4Lm4pN9tbVx-29" vertex="1"><mxGeometry y="60" width="180" height="30" as="geometry"/></mxCell><mxCell id="OAINGEWpF4Lm4pN9tbVx-37" value="FK" style="shape=partialRectangle;connectable=0;fillColor=none;top=0;left=0;bottom=0;right=0;editable=1;overflow=hidden;" parent="OAINGEWpF4Lm4pN9tbVx-36" vertex="1"><mxGeometry width="30" height="30" as="geometry"><mxRectangle width="30" height="30" as="alternateBounds"/></mxGeometry></mxCell><mxCell id="OAINGEWpF4Lm4pN9tbVx-38" value="userId" style="shape=partialRectangle;connectable=0;fillColor=none;top=0;left=0;bottom=0;right=0;align=left;spacingLeft=6;overflow=hidden;" parent="OAINGEWpF4Lm4pN9tbVx-36" vertex="1"><mxGeometry x="30" width="150" height="30" as="geometry"><mxRectangle width="150" height="30" as="alternateBounds"/></mxGeometry></mxCell><mxCell id="OAINGEWpF4Lm4pN9tbVx-39" value="" style="shape=tableRow;horizontal=0;startSize=0;swimlaneHead=0;swimlaneBody=0;fillColor=none;collapsible=0;dropTarget=0;points=[[0,0.5],[1,0.5]];portConstraint=eastwest;top=0;left=0;right=0;bottom=0;" parent="OAINGEWpF4Lm4pN9tbVx-29" vertex="1"><mxGeometry y="90" width="180" height="30" as="geometry"/></mxCell><mxCell id="OAINGEWpF4Lm4pN9tbVx-40" value="FK[]" style="shape=partialRectangle;connectable=0;fillColor=none;top=0;left=0;bottom=0;right=0;editable=1;overflow=hidden;" parent="OAINGEWpF4Lm4pN9tbVx-39" vertex="1"><mxGeometry width="30" height="30" as="geometry"><mxRectangle width="30" height="30" as="alternateBounds"/></mxGeometry></mxCell><mxCell id="OAINGEWpF4Lm4pN9tbVx-41" value="roles" style="shape=partialRectangle;connectable=0;fillColor=none;top=0;left=0;bottom=0;right=0;align=left;spacingLeft=6;overflow=hidden;" parent="OAINGEWpF4Lm4pN9tbVx-39" vertex="1"><mxGeometry x="30" width="150" height="30" as="geometry"><mxRectangle width="150" height="30" as="alternateBounds"/></mxGeometry></mxCell><mxCell id="OAINGEWpF4Lm4pN9tbVx-48" value="Credential" style="shape=table;startSize=30;container=1;collapsible=1;childLayout=tableLayout;fixedRows=1;rowLines=0;fontStyle=1;align=center;resizeLast=1;fillColor=#e1d5e7;strokeColor=#9673a6;" parent="1" vertex="1"><mxGeometry x="-777" y="454" width="180" height="90" as="geometry"/></mxCell><mxCell id="OAINGEWpF4Lm4pN9tbVx-49" value="" style="shape=tableRow;horizontal=0;startSize=0;swimlaneHead=0;swimlaneBody=0;fillColor=none;collapsible=0;dropTarget=0;points=[[0,0.5],[1,0.5]];portConstraint=eastwest;top=0;left=0;right=0;bottom=1;" parent="OAINGEWpF4Lm4pN9tbVx-48" vertex="1"><mxGeometry y="30" width="180" height="30" as="geometry"/></mxCell><mxCell id="OAINGEWpF4Lm4pN9tbVx-50" value="PK" style="shape=partialRectangle;connectable=0;fillColor=none;top=0;left=0;bottom=0;right=0;fontStyle=1;overflow=hidden;" parent="OAINGEWpF4Lm4pN9tbVx-49" vertex="1"><mxGeometry width="30" height="30" as="geometry"><mxRectangle width="30" height="30" as="alternateBounds"/></mxGeometry></mxCell><mxCell id="OAINGEWpF4Lm4pN9tbVx-51" value="UniqueID-Title" style="shape=partialRectangle;connectable=0;fillColor=none;top=0;left=0;bottom=0;right=0;align=left;spacingLeft=6;fontStyle=5;overflow=hidden;" parent="OAINGEWpF4Lm4pN9tbVx-49" vertex="1"><mxGeometry x="30" width="150" height="30" as="geometry"><mxRectangle width="150" height="30" as="alternateBounds"/></mxGeometry></mxCell><mxCell id="OAINGEWpF4Lm4pN9tbVx-55" value="" style="shape=tableRow;horizontal=0;startSize=0;swimlaneHead=0;swimlaneBody=0;fillColor=none;collapsible=0;dropTarget=0;points=[[0,0.5],[1,0.5]];portConstraint=eastwest;top=0;left=0;right=0;bottom=0;" parent="OAINGEWpF4Lm4pN9tbVx-48" vertex="1"><mxGeometry y="60" width="180" height="30" as="geometry"/></mxCell><mxCell id="OAINGEWpF4Lm4pN9tbVx-56" value="str" style="shape=partialRectangle;connectable=0;fillColor=none;top=0;left=0;bottom=0;right=0;editable=1;overflow=hidden;" parent="OAINGEWpF4Lm4pN9tbVx-55" vertex="1"><mxGeometry width="30" height="30" as="geometry"><mxRectangle width="30" height="30" as="alternateBounds"/></mxGeometry></mxCell><mxCell id="OAINGEWpF4Lm4pN9tbVx-57" value="description" style="shape=partialRectangle;connectable=0;fillColor=none;top=0;left=0;bottom=0;right=0;align=left;spacingLeft=6;overflow=hidden;" parent="OAINGEWpF4Lm4pN9tbVx-55" vertex="1"><mxGeometry x="30" width="150" height="30" as="geometry"><mxRectangle width="150" height="30" as="alternateBounds"/></mxGeometry></mxCell><mxCell id="OAINGEWpF4Lm4pN9tbVx-61" style="edgeStyle=orthogonalEdgeStyle;rounded=0;orthogonalLoop=1;jettySize=auto;html=1;exitX=0;exitY=0.5;exitDx=0;exitDy=0;entryX=1;entryY=0.5;entryDx=0;entryDy=0;" parent="1" source="OAINGEWpF4Lm4pN9tbVx-45" target="OAINGEWpF4Lm4pN9tbVx-49" edge="1"><mxGeometry relative="1" as="geometry"/></mxCell><mxCell id="4" style="edgeStyle=orthogonalEdgeStyle;rounded=0;orthogonalLoop=1;jettySize=auto;html=1;exitX=1;exitY=0.5;exitDx=0;exitDy=0;entryX=0;entryY=0.5;entryDx=0;entryDy=0;" edge="1" parent="1" source="OAINGEWpF4Lm4pN9tbVx-36" target="CEBWaWUKwCKMxq4C34Ef-51"><mxGeometry relative="1" as="geometry"/></mxCell><mxCell id="5" style="edgeStyle=orthogonalEdgeStyle;rounded=0;orthogonalLoop=1;jettySize=auto;html=1;exitX=0;exitY=0.5;exitDx=0;exitDy=0;entryX=1;entryY=0.5;entryDx=0;entryDy=0;" edge="1" parent="1" source="OAINGEWpF4Lm4pN9tbVx-39" target="CEBWaWUKwCKMxq4C34Ef-2"><mxGeometry relative="1" as="geometry"/></mxCell><mxCell id="10" style="edgeStyle=orthogonalEdgeStyle;rounded=0;orthogonalLoop=1;jettySize=auto;html=1;exitX=1;exitY=0.5;exitDx=0;exitDy=0;" edge="1" parent="1" source="OAINGEWpF4Lm4pN9tbVx-33" target="OAINGEWpF4Lm4pN9tbVx-17"><mxGeometry relative="1" as="geometry"/></mxCell><mxCell id="17" style="edgeStyle=orthogonalEdgeStyle;rounded=0;orthogonalLoop=1;jettySize=auto;html=1;exitX=0;exitY=0.5;exitDx=0;exitDy=0;entryX=0;entryY=0.5;entryDx=0;entryDy=0;" edge="1" parent="1" source="14" target="OAINGEWpF4Lm4pN9tbVx-17"><mxGeometry relative="1" as="geometry"/></mxCell><mxCell id="18" value="&lt;ul&gt;&lt;li&gt;users:read&lt;/li&gt;&lt;li&gt;users:write&lt;/li&gt;&lt;li&gt;users:...&lt;/li&gt;&lt;/ul&gt;" style="text;strokeColor=none;fillColor=none;html=1;whiteSpace=wrap;verticalAlign=middle;overflow=hidden;" vertex="1" parent="1"><mxGeometry x="-937" y="459" width="100" height="80" as="geometry"/></mxCell><mxCell id="20" style="edgeStyle=orthogonalEdgeStyle;rounded=0;orthogonalLoop=1;jettySize=auto;html=1;exitX=0;exitY=0.5;exitDx=0;exitDy=0;entryX=1;entryY=0.5;entryDx=0;entryDy=0;" edge="1" parent="1" source="OAINGEWpF4Lm4pN9tbVx-49" target="18"><mxGeometry relative="1" as="geometry"/></mxCell></root></mxGraphModel></diagram></mxfile>